<svg width="20" height="20" viewBox="0 0 20 20" fill="none" xmlns="http://www.w3.org/2000/svg">
<path fill-rule="evenodd" clip-rule="evenodd" d="M9.44757 4.44757C9.75267 4.14248 10.2473 4.14248 10.5524 4.44757L13.0524 6.94757C13.3575 7.25267 13.3575 7.74733 13.0524 8.05243C12.7473 8.35752 12.2527 8.35752 11.9476 8.05243L10 6.10485L8.05243 8.05243C7.74733 8.35752 7.25267 8.35752 6.94757 8.05243C6.64248 7.74733 6.64248 7.25267 6.94757 6.94757L9.44757 4.44757Z" fill="#1E202C"/>
<path fill-rule="evenodd" clip-rule="evenodd" d="M10.5524 15.5524C10.2473 15.8575 9.75267 15.8575 9.44757 15.5524L6.94757 13.0524C6.64248 12.7473 6.64248 12.2527 6.94757 11.9476C7.25267 11.6425 7.74733 11.6425 8.05243 11.9476L10 13.8951L11.9476 11.9476C12.2527 11.6425 12.7473 11.6425 13.0524 11.9476C13.3575 12.2527 13.3575 12.7473 13.0524 13.0524L10.5524 15.5524Z" fill="#1E202C"/>
</svg>
